<?xml version="1.0" encoding="UTF-8"?>
<svg width="128px" height="34px" viewBox="0 0 128 34" version="1.1" xmlns="http://www.w3.org/2000/svg" xmlns:xlink="http://www.w3.org/1999/xlink">
    <!-- Generator: Sketch 49.3 (51167) - http://www.bohemiancoding.com/sketch -->
    <title>Quinncia_Logo_Blue</title>
    <desc>Created with Sketch.</desc>
    <defs></defs>
    <g id="Page-1" stroke="none" stroke-width="1" fill="none" fill-rule="evenodd">
        <g id="1.0-Student---Interview-Analysis" transform="translate(-50.000000, -55.000000)">
            <g id="Header">
                <g id="Quinncia_Logo_Blue" transform="translate(50.000000, 55.000000)">
                    <path d="M38.4784394,26.4279481 L39.5131586,17.2989481 C39.5144197,17.2876148 39.5144197,17.2756519 39.5144197,17.2643185 L40.6279567,7.61398519 C40.6348926,7.56298519 40.617868,7.51072593 40.5831882,7.47168889 C40.5472473,7.43265185 40.498065,7.41124444 40.4463606,7.41124444 L35.8616906,7.41124444 C35.7677399,7.41124444 35.6901833,7.48113333 35.679464,7.57242963 L34.5879961,17.1875037 C34.5760158,17.2082815 34.5671882,17.2322074 34.564666,17.2580222 L34.1535527,20.870837 C32.2644493,22.1886519 30.9371586,22.6035778 30.0354837,22.6029481 C28.481198,22.6073556 28.0744985,21.3896519 28.0127054,21.1900593 L29.5814936,7.61398519 C29.5871685,7.56298519 29.5707744,7.51072593 29.5348335,7.47168889 C29.5014148,7.43265185 29.451602,7.41124444 29.3986365,7.41124444 L24.813336,7.41124444 C24.7200158,7.41124444 24.6424591,7.48113333 24.6317399,7.57242963 L23.0560158,21.4450593 C23.0106167,21.7674296 22.9891783,22.0759481 22.9891783,22.3643185 C22.99107,25.4180222 25.3795626,26.344837 25.4022621,26.3492444 C26.1204493,26.6816889 26.8796217,26.8195778 27.6381635,26.8195778 C30.0266562,26.8151704 32.4113655,25.4885407 33.7285675,24.6202815 L33.5280552,26.3870222 C33.5230108,26.4392815 33.5387744,26.4909111 33.5734542,26.5293185 C33.6087645,26.5689852 33.6579468,26.589763 33.7102818,26.589763 L38.2962128,26.589763 C38.389533,26.589763 38.4683507,26.5198741 38.4784394,26.4279481" id="Fill-24" fill="#039BE5"></path>
                    <path d="M15.7312,26.5767296 C18.3832591,26.5414704 20.7408552,24.405137 21.0416236,21.7550259 L22.9319882,4.86269259 C22.951535,4.67884074 22.9616236,4.49750741 22.9616236,4.31932222 C22.9565793,1.89461852 21.0996335,0.00447037037 18.6039488,6.29629629e-05 L9.99579113,6.29629629e-05 C7.31977143,0.00321111111 4.92812611,2.15276667 4.62609655,4.8223963 L4.44260887,6.46006296 C4.41675665,6.69113704 4.51764335,6.91906296 4.70680591,7.05506296 L8.53797833,9.81284074 C8.70822463,9.93561852 8.94846108,9.82921111 8.97179113,9.62017407 L9.19626404,7.61606296 C9.37470739,5.98154444 10.8684611,4.63728519 12.5028256,4.63728519 L15.1334463,4.63728519 C16.6549438,4.64106296 17.7602837,5.76935926 17.764067,7.24206296 C17.764067,7.35098889 17.7577616,7.4618037 17.7464118,7.5763963 L16.4720867,18.9613593 C16.2923823,20.6002852 14.7935842,21.9451741 13.156067,21.9413963 L10.535535,21.9413963 C9.01214581,21.9363593 7.908067,20.8068037 7.90302266,19.3341 C7.90302266,19.2239148 7.90932808,19.1124704 7.92130837,19.0041741 L8.19244138,16.5801 C8.21640197,16.3691741 7.98562365,16.2237296 7.80528867,16.3358037 L3.24079606,19.1685074 C3.09135764,19.2616926 2.99236256,19.4178407 2.97281576,19.5928778 L2.73573202,21.7147296 C2.71555468,21.8973222 2.70483547,22.0780259 2.70483547,22.2574704 C2.7098798,24.6802852 4.56682562,26.5729519 7.06377143,26.5773593 L9.51784039,26.5773593 L15.9146877,33.4762111 C15.9474759,33.5114704 15.9928749,33.5328778 16.0407961,33.534137 C16.0433182,33.534137 16.0471015,33.5347667 16.0496236,33.5347667 C16.0962837,33.5347667 16.13853,33.5165074 16.1732099,33.4856556 L19.2502542,30.6409889 C19.2861951,30.6069889 19.307003,30.5622852 19.308264,30.5138037 C19.3107862,30.4646926 19.2925005,30.4187296 19.2603429,30.3822111 L15.7312,26.5767296 Z" id="Fill-26" fill="#039BE5"></path>
                    <path d="M104.492579,4.71277778 L109.067161,4.71277778 C109.160481,4.71277778 109.237407,4.64288889 109.248757,4.55159259 L109.74184,0.20337037 C109.747515,0.150481481 109.731752,0.0994814815 109.697072,0.0604444444 C109.661762,0.0214074074 109.61321,0 109.560244,0 L104.99386,0 C104.90117,0 104.822353,0.0692592593 104.812264,0.161185185 L104.310353,4.51003704 C104.303417,4.56040741 104.320441,4.6132963 104.355121,4.65233333 C104.389801,4.69137037 104.440244,4.71277778 104.492579,4.71277778" id="Fill-28" fill="#039BE5"></path>
                    <path d="M43.594467,4.71277778 L48.1696788,4.71277778 C48.2623685,4.71277778 48.3405557,4.64288889 48.3512749,4.55159259 L48.8443586,0.20337037 C48.850664,0.150481481 48.8336394,0.0994814815 48.7995901,0.0604444444 C48.7642798,0.0214074074 48.7157281,0 48.6627626,0 L44.0963783,0 C44.0043192,0 43.9248709,0.0692592593 43.9147823,0.161185185 L43.4135015,4.51003704 C43.405935,4.56040741 43.4229596,4.6132963 43.4576394,4.65233333 C43.4923192,4.69137037 43.5415015,4.71277778 43.594467,4.71277778" id="Fill-30" fill="#039BE5"></path>
                    <path d="M45.8223606,26.4279481 L46.9119369,16.8172815 C46.9251783,16.7952444 46.9346365,16.7700593 46.9384197,16.7423556 L47.9725084,7.61398519 C47.9788138,7.56172593 47.9617892,7.5100963 47.9277399,7.47105926 C47.8924296,7.43202222 47.8426167,7.41124444 47.7909123,7.41124444 L43.2043507,7.41124444 C43.1110305,7.41124444 43.0328433,7.4805037 43.0227547,7.57242963 L41.9874049,16.7014296 C41.9861438,16.7140222 41.9861438,16.7259852 41.9867744,16.7385778 L40.8726069,26.3870222 C40.8656709,26.4380222 40.882065,26.4902815 40.9180059,26.5293185 C40.9514246,26.5683556 41.0012374,26.589763 41.054203,26.589763 L45.6413951,26.589763 C45.7328236,26.589763 45.8116414,26.5198741 45.8223606,26.4279481" id="Fill-32" fill="#039BE5"></path>
                    <path d="M117.669328,23.3480519 L116.644067,23.3480519 C114.951693,23.3342 114.29656,22.2103111 114.275752,20.5575333 C114.275752,20.3245704 114.288993,20.0827926 114.318629,19.8366074 L115.010964,13.8223852 C115.253722,11.8088296 116.256914,10.2700148 118.190786,10.2681259 L119.216047,10.2681259 C120.904638,10.2813481 121.553466,11.4064963 121.574904,13.0592741 C121.574904,13.1140519 121.573643,13.1707185 121.572382,13.2305333 L120.898964,19.3562 L120.84852,19.7944222 C120.605131,21.8060889 119.6032,23.3455333 117.669328,23.3480519 M125.244658,26.4282 L126.334865,16.8150148 C126.348106,16.7936074 126.356303,16.7690519 126.359456,16.7426074 L127.394806,7.61360741 C127.401111,7.56134815 127.384087,7.50971852 127.350037,7.47131111 C127.314097,7.43227407 127.264914,7.41086667 127.212579,7.41086667 L122.626018,7.41086667 C122.533328,7.41086667 122.455771,7.48012593 122.444422,7.57268148 L122.31453,8.72238519 C121.409072,7.47194074 119.865505,7.18042222 118.115752,7.18105185 L116.803594,7.18105185 C113.664757,7.18545926 110.909289,9.20531111 110.543574,12.3358296 L109.520835,21.2375333 C109.494353,21.4585333 109.481742,21.6763852 109.481742,21.8917185 C109.486156,24.7244222 111.691161,26.5856074 114.614353,26.5893852 L115.923358,26.5893852 C117.674372,26.5893852 119.284776,26.1486444 120.465151,24.9120519 L120.294274,26.3866444 C120.287968,26.4370148 120.304363,26.4899037 120.339673,26.5295704 C120.373722,26.5679778 120.422904,26.5893852 120.4765,26.5893852 L125.063062,26.5893852 C125.155121,26.5893852 125.233939,26.5194963 125.244658,26.4282" id="Fill-34" fill="#039BE5"></path>
                    <path d="M64.2087094,26.4279481 L65.7844335,12.5553185 C65.8298325,12.2335778 65.8506404,11.9250593 65.8506404,11.6360593 C65.8487488,8.58235556 63.4608867,7.65617037 63.4381872,7.65176296 C62.72,7.31868889 61.9608276,7.18142963 61.2022857,7.18142963 C58.8137931,7.18520741 56.4290837,8.51183704 55.1118818,9.3800963 L55.3117635,7.61398519 C55.3174384,7.56172593 55.3016749,7.5100963 55.2669951,7.47105926 C55.2310542,7.43202222 55.1818719,7.41124444 55.1301675,7.41124444 L50.5442365,7.41124444 C50.4502857,7.41124444 50.371468,7.4805037 50.3620099,7.57242963 L49.3272906,16.7014296 C49.3260296,16.712763 49.3260296,16.7247259 49.3260296,16.7360593 L48.2118621,26.3870222 C48.2055567,26.4380222 48.2225813,26.4902815 48.2572611,26.5293185 C48.2925714,26.5683556 48.3417537,26.589763 48.3934581,26.589763 L52.9787586,26.589763 C53.0720788,26.589763 53.1496355,26.5198741 53.1609852,26.4279481 L54.2518227,16.8128741 C54.2644335,16.7920963 54.2732611,16.7681704 54.2757833,16.7423556 L54.6868966,13.1301704 C56.576,11.8123556 57.9032906,11.3968 58.804335,11.3980593 C60.3592512,11.3936519 60.7659507,12.6107259 60.8271133,12.8109481 L59.2589557,26.3870222 C59.2526502,26.4380222 59.2696749,26.4902815 59.3049852,26.5293185 C59.3390345,26.5683556 59.3888473,26.589763 59.4418128,26.589763 L64.0271133,26.589763 C64.1204335,26.589763 64.1979901,26.5198741 64.2087094,26.4279481" id="Fill-36" fill="#039BE5"></path>
                    <path d="M100.345442,21.0281185 L100.557304,19.1782667 C100.56361,19.1272667 100.548477,19.0768963 100.513797,19.0391185 C100.478487,19.0000815 100.430566,18.9786741 100.379492,18.9786741 L96.2500729,18.9786741 C96.1580138,18.9786741 96.0823488,19.0460444 96.0722601,19.1373407 L96.0211862,19.5698963 C95.7815803,21.5463037 94.7966739,23.0599333 92.8968512,23.0618222 L91.8886148,23.0618222 C90.2258759,23.0486 89.5820926,21.9442296 89.5606542,20.3197852 C89.5606542,20.0906 89.5738956,19.8532296 89.6029005,19.6108222 L90.2832552,14.2029333 C90.5222305,12.224637 91.5077675,10.7122667 93.4088512,10.7097481 L94.4170877,10.7097481 C96.0760433,10.7229704 96.7141517,11.8286 96.7349596,13.4530444 C96.7349596,13.5084519 96.7336985,13.5670074 96.733068,13.6287111 C96.7318069,13.6759333 96.7507232,13.7231556 96.7841419,13.7577852 C96.81693,13.7911556 96.8635901,13.8113037 96.9121419,13.8113037 L101.073088,13.8113037 C101.165777,13.8113037 101.241442,13.7426741 101.251531,13.6513778 L101.351787,12.7837481 C101.376378,12.5665259 101.388359,12.350563 101.388359,12.1402667 C101.383945,9.35604444 99.2552355,7.18634074 96.3850089,7.1813037 L92.1698365,7.1813037 C89.0845951,7.18508148 86.3184079,9.66519259 85.958999,12.7421926 L84.9520236,20.9884519 C84.9280631,21.2044148 84.9154522,21.4191185 84.9154522,21.6306741 C84.919866,24.4148963 87.0479448,26.5852296 89.9206936,26.589637 L94.1333438,26.589637 C97.2211074,26.5858593 99.9872946,24.1070074 100.345442,21.0281185" id="Fill-38" fill="#039BE5"></path>
                    <path d="M106.796768,26.4279481 L107.888236,16.8135037 C107.900217,16.7927259 107.909675,16.7681704 107.912197,16.7423556 L108.947547,7.61398519 C108.953852,7.56172593 108.937458,7.5100963 108.901517,7.47105926 C108.867468,7.43202222 108.817655,7.41124444 108.765951,7.41124444 L104.18002,7.41124444 C104.086069,7.41124444 104.007882,7.4805037 103.998424,7.57242963 L102.961813,16.7014296 C102.960552,16.7152815 102.960552,16.7285037 102.961813,16.7417259 L101.846384,26.3870222 C101.84134,26.4373926 101.857734,26.4902815 101.893044,26.5293185 C101.927094,26.5683556 101.976276,26.589763 102.028611,26.589763 L106.615172,26.589763 C106.707862,26.589763 106.78731,26.5198741 106.796768,26.4279481" id="Fill-40" fill="#039BE5"></path>
                    <path d="M82.4020493,26.4279481 L83.9784039,12.5553185 C84.0244335,12.2335778 84.0439803,11.9250593 84.0439803,11.6373185 C84.0433498,8.58235556 81.6554877,7.65617037 81.6327882,7.65176296 C80.9139704,7.31742963 80.1541675,7.18142963 79.3962562,7.18142963 C77.0065025,7.18520741 74.6224236,8.51183704 73.3052217,9.37946667 L73.5063645,7.61398519 C73.5120394,7.56172593 73.4956453,7.5100963 73.460335,7.47105926 C73.4262857,7.43202222 73.3771034,7.41124444 73.3247685,7.41124444 L68.7382069,7.41124444 C68.6455172,7.41124444 68.56733,7.4805037 68.5559803,7.57242963 L67.52,16.7014296 C67.5187389,16.7152815 67.5187389,16.7285037 67.52,16.7417259 L66.405202,26.3870222 C66.3995271,26.4380222 66.4159212,26.4902815 66.4512315,26.5293185 C66.4852808,26.5683556 66.5350936,26.589763 66.5874286,26.589763 L71.1727291,26.589763 C71.2660493,26.589763 71.344867,26.5198741 71.3549557,26.4279481 L72.4470542,16.8135037 C72.4590345,16.7927259 72.4672315,16.7681704 72.4703842,16.7423556 L72.880867,13.1289111 C74.770601,11.8110963 76.0966305,11.3949111 76.998936,11.3955407 C78.5519606,11.3923926 78.9605517,12.6082074 79.0223448,12.8096889 L77.4529261,26.3870222 C77.4472512,26.4380222 77.4636453,26.4902815 77.4989557,26.5293185 C77.5330049,26.5683556 77.5828177,26.589763 77.6357833,26.589763 L82.2204532,26.589763 C82.3131429,26.589763 82.3906995,26.5198741 82.4020493,26.4279481" id="Fill-42" fill="#039BE5"></path>
                    <path d="M8.1926936,16.580163 C8.21665419,16.369237 7.98587586,16.2237926 7.80491034,16.3358667 L3.24104828,19.1685704 C3.09160985,19.2617556 2.99261478,19.4179037 2.97306798,19.5929407 L2.85957044,20.6085333 C2.86146207,20.6072741 2.70256552,22.2587926 2.70444039,22.2575341 L7.92156059,19.004237 L8.1926936,16.580163 Z" id="Fill-44" fill="#01579B"></path>
                    <path d="M0.744039409,21.0556333 C0.419940887,21.2571148 0,21.0241519 0,20.6432259 L1.23018719,8.45611481 C1.23018719,8.0733 1.6520197,7.84096667 1.97611823,8.04496667 L10.4978916,14.1788185 C10.8018128,14.3702259 10.8005517,14.8128556 10.4953695,15.0023741 L0.744039409,21.0556333 Z" id="Fill-46" fill="#B3E5FC"></path>
                </g>
            </g>
        </g>
    </g>
</svg>